<svg width="160" height="32" viewBox="0 0 160 32" fill="none" xmlns="http://www.w3.org/2000/svg">
<path d="M16 0C7.1808 0 0 7.1808 0 16C0 24.8192 7.1808 32 16 32C24.8192 32 32 24.8256 32 16C32 7.1744 24.8256 0 16 0ZM20.4352 9.4912C20.4352 9.6256 20.3264 9.7344 20.192 9.7344H18.2656C17.792 9.7344 17.408 10.1184 17.408 10.592V12.608H20.1472C20.1536 12.608 20.16 12.608 20.1664 12.608C20.3008 12.6208 20.3968 12.736 20.384 12.8704L20.1408 15.712C20.128 15.84 20.0256 15.936 19.8976 15.936H17.4016V25.3632C17.4016 25.4976 17.2928 25.6064 17.1584 25.6064H13.7152C13.5808 25.6064 13.472 25.4976 13.472 25.3632V16.0768V15.9232H11.7504C11.616 15.9232 11.5072 15.8144 11.5072 15.68V12.8384C11.5072 12.704 11.616 12.5952 11.7504 12.5952H13.472V9.856C13.472 7.9488 15.0208 6.4 16.928 6.4H20.1792C20.3136 6.4 20.4224 6.5088 20.4224 6.6432V9.4912H20.4352Z" fill="#5D50C6"/>
<path d="M80 32C88.8366 32 96 24.8366 96 16C96 7.16344 88.8366 0 80 0C71.1634 0 64 7.16344 64 16C64 24.8366 71.1634 32 80 32Z" fill="#5D50C6"/>
<path d="M89.8012 11.4986C89.1156 11.8027 88.378 12.0083 87.6045 12.1002C88.3943 11.627 89.0004 10.8783 89.2864 9.98471C88.5474 10.4231 87.7286 10.7411 86.8578 10.9125C86.1602 10.1695 85.1662 9.7052 84.0656 9.7052C81.9538 9.7052 80.2411 11.4179 80.2411 13.5297C80.2411 13.8294 80.2751 14.1212 80.3407 14.4013C77.1622 14.2418 74.344 12.7194 72.4576 10.4048C72.1285 10.9696 71.9396 11.627 71.9396 12.3278C71.9396 13.6543 72.6153 14.8254 73.641 15.511C73.0143 15.4914 72.4242 15.3194 71.9088 15.0322C71.9086 15.0484 71.9086 15.0647 71.9086 15.0807C71.9086 16.9337 73.2274 18.4793 74.9766 18.8304C74.656 18.9182 74.3175 18.9647 73.9692 18.9647C73.7222 18.9647 73.4829 18.941 73.2496 18.8965C73.7362 20.4156 75.1483 21.5214 76.8222 21.5525C75.5131 22.5784 73.8643 23.1896 72.072 23.1896C71.764 23.1896 71.4588 23.1716 71.1602 23.136C72.8518 24.2215 74.8625 24.8544 77.0222 24.8544C84.0567 24.8544 87.9037 19.0269 87.9037 13.9726C87.9037 13.8069 87.9 13.6417 87.8926 13.478C88.6404 12.939 89.2887 12.2656 89.8012 11.4986Z" fill="#F1F2F2"/>
<path d="M144 32C152.837 32 160 24.8366 160 16C160 7.16344 152.837 0 144 0C135.163 0 128 7.16344 128 16C128 24.8366 135.163 32 144 32Z" fill="#5D50C6"/>
<path d="M148.799 8.19995H139.199C137.533 8.19995 136.199 9.53328 136.199 11.2V20.8C136.199 22.4666 137.533 23.8 139.199 23.8H148.799C150.466 23.8 151.799 22.4666 151.799 20.8V11.1999C151.799 9.53328 150.466 8.19995 148.799 8.19995ZM149.666 9.99995H149.999V12.6666H147.333V9.99995H149.666ZM141.799 14.4C142.266 13.7333 143.133 13.2666 143.999 13.2666C144.866 13.2666 145.733 13.7333 146.199 14.4C146.533 14.8666 146.733 15.4 146.733 16C146.733 17.5333 145.466 18.7333 143.999 18.7333C142.533 18.7333 141.266 17.5333 141.266 16C141.266 15.4 141.466 14.8666 141.799 14.4ZM150.266 20.8C150.266 21.6 149.599 22.2666 148.799 22.2666H139.199C138.399 22.2666 137.733 21.6 137.733 20.8V14.4H140.066C139.866 14.8666 139.733 15.4666 139.733 16C139.733 18.3333 141.666 20.2666 143.999 20.2666C146.333 20.2666 148.266 18.3333 148.266 16C148.266 15.4666 148.133 14.8666 147.933 14.4H150.266L150.266 20.8Z" fill="white"/>
</svg>
